<?xml version="1.0" encoding="utf-8"?>
<!-- Generator: Adobe Illustrator 16.0.0, SVG Export Plug-In . SVG Version: 6.00 Build 0)  -->
<!DOCTYPE svg PUBLIC "-//W3C//DTD SVG 1.0//EN" "http://www.w3.org/TR/2001/REC-SVG-20010904/DTD/svg10.dtd" [
	<!ENTITY ns_extend "http://ns.adobe.com/Extensibility/1.0/">
	<!ENTITY ns_ai "http://ns.adobe.com/AdobeIllustrator/10.0/">
	<!ENTITY ns_graphs "http://ns.adobe.com/Graphs/1.0/">
	<!ENTITY ns_vars "http://ns.adobe.com/Variables/1.0/">
	<!ENTITY ns_imrep "http://ns.adobe.com/ImageReplacement/1.0/">
	<!ENTITY ns_sfw "http://ns.adobe.com/SaveForWeb/1.0/">
	<!ENTITY ns_custom "http://ns.adobe.com/GenericCustomNamespace/1.0/">
	<!ENTITY ns_adobe_xpath "http://ns.adobe.com/XPath/1.0/">
]>
<svg version="1.0" xmlns:x="&ns_extend;" xmlns:i="&ns_ai;" xmlns:graph="&ns_graphs;"
	 xmlns="http://www.w3.org/2000/svg" xmlns:xlink="http://www.w3.org/1999/xlink" x="0px" y="0px" width="19px" height="19px"
	 viewBox="0 0 19 19" enable-background="new 0 0 19 19" xml:space="preserve">
<metadata>
	<sfw  xmlns="&ns_sfw;">
		<slices></slices>
		<sliceSourceBounds  height="14.365" width="62.587" y="-271.674" x="254" bottomLeftOrigin="true"></sliceSourceBounds>
		<optimizationSettings>
			<targetSettings  fileFormat="PNG24Format" targetSettingsID="0">
				<PNG24Format  transparency="true" filtered="false" matteColor="#FFFFFF" noMatteColor="false" interlaced="false">
					</PNG24Format>
			</targetSettings>
		</optimizationSettings>
	</sfw>
</metadata>
<g id="mail">
	<g>
		<path d="M17.869,0H9.5H1.13C0.505,0,0,0.505,0,1.127v0.857l9.498,4.869L9.5,6.851l0.003,0.002L19,1.984V1.127
			C19,0.505,18.494,0,17.869,0z"/>
		<path d="M9.5,8.719L5.466,6.65L0,11.064v0.808C0,12.495,0.505,13,1.13,13H9.5h8.369C18.494,13,19,12.495,19,11.872v-0.808
			L13.532,6.65L9.5,8.719z"/>
		<polygon points="19,9.62 19,3.847 14.628,6.088 		"/>
		<polygon points="0,3.847 0,9.62 4.372,6.088 		"/>
	</g>
</g>
<g id="credit">
	<g>
		<g>
			<path d="M37.186,3.846V0.417h1.439h0.131c0.387,0,0.65,0.075,0.791,0.224s0.211,0.428,0.211,0.836
				c0,0.392-0.074,0.659-0.22,0.801c-0.146,0.142-0.422,0.213-0.825,0.213l-0.15,0.002h-0.99v1.351H37.186z M37.572,2.168h0.917
				c0.384,0,0.63-0.039,0.737-0.118c0.108-0.078,0.162-0.259,0.162-0.542c0-0.331-0.036-0.541-0.109-0.629s-0.246-0.132-0.519-0.132
				l-0.148-0.002h-1.04V2.168z"/>
			<path d="M40.606,0.417v3.428H40.22V0.417H40.606z"/>
			<path d="M43.871,0.417l-1.094,1.655l1.178,1.773h-0.457l-0.794-1.2l-0.126-0.188c-0.007-0.01-0.026-0.041-0.058-0.093
				L42.46,2.269h-0.01L42.39,2.367c-0.033,0.048-0.055,0.081-0.063,0.095l-0.131,0.191L41.39,3.846h-0.475l1.226-1.773l-1.127-1.655
				h0.467l0.762,1.143l0.105,0.161c0.013,0.02,0.03,0.047,0.053,0.08l0.05,0.081h0.01l0.051-0.078
				c0.026-0.045,0.043-0.072,0.05-0.08l0.104-0.158l0.751-1.148H43.871z"/>
			<g>
				<path d="M47.797,2.046c-0.162-0.126-0.514-0.199-1.072-0.224c-0.593-0.028-0.738-0.084-0.773-0.107
					c-0.021-0.015-0.094-0.088-0.094-0.424c0-0.144,0.022-0.328,0.129-0.393c0.07-0.042,0.254-0.093,0.733-0.093
					c0.415,0,0.548,0.057,0.589,0.09c0.039,0.031,0.103,0.131,0.103,0.451v0.097h0.579V1.347c0-0.436-0.09-0.716-0.271-0.859
					c-0.175-0.136-0.522-0.203-1.063-0.203c-0.531,0-0.883,0.071-1.07,0.216c-0.196,0.151-0.292,0.432-0.292,0.858
					c0,0.611,0.333,0.958,0.964,1.001l0.783,0.041c0.256,0.015,0.344,0.067,0.373,0.096c0.027,0.028,0.075,0.111,0.075,0.349
					c0,0.393-0.079,0.493-0.113,0.518c-0.048,0.035-0.21,0.093-0.762,0.093c-0.493,0-0.626-0.063-0.66-0.091
					c-0.031-0.024-0.104-0.123-0.104-0.496V2.689h-0.58l0.004,0.25c0,0.414,0.094,0.686,0.283,0.832
					c0.183,0.139,0.524,0.207,1.045,0.207c0.597,0,0.977-0.067,1.162-0.205c0.194-0.145,0.289-0.438,0.289-0.896
					C48.053,2.451,47.969,2.179,47.797,2.046z"/>
				<polygon points="48.186,3.943 50.582,3.943 50.582,3.422 48.766,3.422 48.766,2.335 50.506,2.335 50.506,1.815 48.766,1.815 
					48.766,0.841 50.582,0.841 50.582,0.321 48.186,0.321 				"/>
				<path d="M53.138,2.904c0,0.246-0.044,0.409-0.124,0.46c-0.055,0.035-0.23,0.093-0.801,0.093c-0.572,0-0.719-0.122-0.755-0.195
					c-0.052-0.104-0.112-0.475-0.112-1.649c0-0.504,0.09-0.648,0.145-0.689c0.059-0.044,0.261-0.119,0.953-0.119
					c0.379,0,0.503,0.059,0.543,0.094c0.037,0.033,0.102,0.137,0.102,0.462l0.004,0.2h0.579l-0.005-0.19
					c0-0.421-0.085-0.702-0.26-0.858c-0.172-0.154-0.481-0.229-0.947-0.229c-0.672,0-1.102,0.075-1.316,0.229
					c-0.184,0.134-0.298,0.292-0.338,0.468c-0.037,0.162-0.056,0.536-0.056,1.143c0,0.789,0.083,1.282,0.253,1.507
					c0.178,0.232,0.561,0.346,1.173,0.346c0.679,0,1.077-0.062,1.258-0.193c0.188-0.137,0.278-0.449,0.278-0.953V2.604h-0.58
					L53.138,2.904z"/>
				<polygon points="56.451,0.321 53.645,0.321 53.645,0.874 54.763,0.874 54.763,3.943 55.344,3.943 55.344,0.874 56.451,0.874 
									"/>
				<path d="M57.951,0.285c-0.589,0-0.984,0.089-1.21,0.272c-0.228,0.185-0.343,0.524-0.343,1.007L56.393,2.13
					c0,0.82,0.086,1.32,0.26,1.529c0.18,0.215,0.604,0.319,1.299,0.319c0.699,0,1.124-0.105,1.301-0.322
					c0.172-0.211,0.256-0.725,0.256-1.571c0-0.788-0.088-1.272-0.268-1.482C59.057,0.389,58.636,0.285,57.951,0.285z M57.949,0.806
					c0.557,0,0.764,0.072,0.838,0.132c0.07,0.057,0.154,0.214,0.154,0.646l0.003,0.547c0,0.929-0.083,1.138-0.118,1.185
					c-0.033,0.043-0.184,0.143-0.877,0.143c-0.691,0-0.842-0.1-0.875-0.143c-0.035-0.046-0.118-0.255-0.118-1.185
					c0-0.927,0.083-1.135,0.118-1.182C57.107,0.906,57.258,0.806,57.949,0.806z"/>
				<path d="M62.226,2.3c0.097-0.048,0.171-0.112,0.222-0.19c0.094-0.142,0.14-0.376,0.14-0.715c0-0.386-0.086-0.664-0.256-0.828
					c-0.171-0.166-0.447-0.246-0.846-0.246h-1.729v3.622h0.58V2.554h1.199c0.197,0,0.424,0.057,0.424,0.503v0.885h0.58V2.97
					C62.539,2.596,62.4,2.399,62.226,2.3z M62.023,1.49c0,0.217-0.042,0.362-0.126,0.432c-0.061,0.051-0.204,0.111-0.54,0.111
					h-1.021V0.841h1.154c0.302,0,0.403,0.066,0.438,0.106C61.963,0.99,62.023,1.117,62.023,1.49z"/>
			</g>
		</g>
		<g>
			<polygon fill="#FFFFFF" points="33.143,2.89 30.97,5.062 29.506,3.596 29.043,4.064 30.97,5.992 33.969,2.993 33.501,2.524 			
				"/>
			<polygon fill="#FFFFFF" points="28.542,3.356 28.646,3.253 28.697,3.202 28.801,3.098 28.904,2.995 28.902,2.993 30.97,0.925 
				31.949,1.904 31.164,2.696 30.418,1.95 29.952,2.416 29.979,2.423 30,2.421 30,2.423 31.186,3.628 32.554,2.239 32.887,1.903 
				30.961,-0.016 27.973,2.993 28.439,3.46 			"/>
			<path fill="#4EAADF" d="M35.265,1.414c-0.813-2.213-3.305-3.335-5.569-2.505c-2.264,0.83-3.44,3.297-2.629,5.51
				c0.812,2.214,3.305,3.334,5.568,2.505C34.898,6.094,36.076,3.627,35.265,1.414z M27.972,2.993l2.987-3.008l1.923,1.919
				l-0.338,0.336l-1.358,1.389L30,2.423V2.421l-0.021,0.002l-0.018-0.008l0.461-0.466l0.743,0.746l0.785-0.792l-0.98-0.979
				l-2.068,2.068l0.002,0.002l-0.104,0.104l-0.104,0.104l-0.052,0.052l-0.104,0.103L28.438,3.46L27.972,2.993z M30.97,5.992
				l-1.927-1.928l0.463-0.468l1.464,1.465l2.173-2.172l0.358-0.365l0.468,0.468L30.97,5.992z"/>
		</g>
		<g>
			<path d="M54.934,6.257v0.379h-0.318V6.257H54.934z"/>
			<path d="M56.795,5.925h0.289l0.002,0.107c0,0.422-0.276,0.633-0.828,0.633c-0.355,0-0.59-0.067-0.703-0.2
				c-0.115-0.133-0.172-0.408-0.172-0.825c0-0.39,0.059-0.655,0.174-0.795c0.117-0.14,0.338-0.209,0.663-0.209
				c0.321,0,0.539,0.047,0.655,0.142c0.117,0.094,0.176,0.271,0.176,0.531h-0.289V5.257c0-0.153-0.037-0.254-0.113-0.305
				c-0.075-0.051-0.226-0.077-0.451-0.077c-0.217,0-0.356,0.048-0.418,0.145c-0.063,0.096-0.094,0.312-0.094,0.647
				c0,0.327,0.035,0.535,0.106,0.625c0.071,0.089,0.236,0.134,0.496,0.134c0.22,0,0.359-0.029,0.419-0.088
				C56.766,6.28,56.795,6.142,56.795,5.925z"/>
			<path d="M58.303,4.636c0.364,0,0.601,0.063,0.709,0.19c0.109,0.126,0.163,0.401,0.163,0.825s-0.054,0.698-0.163,0.825
				c-0.108,0.126-0.345,0.189-0.709,0.189c-0.363,0-0.599-0.063-0.707-0.189c-0.109-0.127-0.163-0.402-0.163-0.825
				s0.054-0.698,0.163-0.825C57.704,4.699,57.939,4.636,58.303,4.636z M58.303,4.875c-0.256,0-0.414,0.042-0.475,0.125
				c-0.063,0.083-0.092,0.3-0.092,0.65s0.029,0.567,0.092,0.651c0.061,0.083,0.219,0.125,0.475,0.125
				c0.257,0,0.416-0.042,0.478-0.125c0.061-0.083,0.092-0.3,0.092-0.651S58.841,5.083,58.78,5
				C58.719,4.917,58.56,4.875,58.303,4.875z"/>
			<path d="M59.625,4.665h0.288l-0.006,0.297l0.006,0.006c0.111-0.221,0.325-0.332,0.644-0.332c0.334,0,0.537,0.111,0.608,0.332
				h0.008c0.124-0.221,0.351-0.332,0.679-0.332c0.465,0,0.697,0.237,0.697,0.712v1.289H62.26V5.321c0-0.173-0.031-0.291-0.093-0.353
				c-0.062-0.062-0.179-0.093-0.351-0.093c-0.229,0-0.383,0.043-0.464,0.129s-0.122,0.25-0.122,0.492v1.14h-0.288V5.348
				l-0.005-0.091c0-0.254-0.145-0.382-0.435-0.382c-0.394,0-0.59,0.214-0.59,0.642v1.12h-0.288V4.665z"/>
		</g>
	</g>
</g>
</svg>
